<svg width="95" height="32" viewBox="0 0 95 32" fill="none" xmlns="http://www.w3.org/2000/svg">
<path d="M15.3928 29.0147L14.0196 25.2691L27.2919 25.9916L26.696 31.9862L15.3928 29.0147ZM18.573 0L0 9.28822L2.87243 23.2844H6.66092L6.00663 13.2724L6.58787 13.0818L8.86584 23.2844H12.8017L12.656 11.0889L13.2375 10.898L15.2283 23.2844H19.3954L20.3784 8.55333L20.9595 8.36222L21.9908 23.2844H27.5012L29.4408 2.79933L18.573 0ZM75.9318 30.4696L75.8934 29.3018L79.7065 29.2542L79.7415 27.9816L75.8483 27.9304L75.8094 26.7482L80.9386 26.6209L80.9806 25.2249H74.0611L73.8547 32H81.1085L81.0574 30.6011L75.9318 30.4696ZM41.4292 27.9784L41.3478 29.2462L43.2723 29.3142L43.2479 30.6011L39.2199 30.476L39.3954 26.7593L44.9337 26.6238L44.8537 25.2249H37.7L37.0585 32H45.2093L44.9982 27.9129L41.4292 27.9784ZM91.9172 28.5029L86.6306 27.5567L86.6535 26.8233L91.7109 26.6236L91.5833 25.2249H85.0823L84.7498 28.7364L90.1242 29.7258L90.1485 30.3711L84.5565 30.6011L84.4194 32H92.246L91.9172 28.5029ZM70.3448 32L69.7033 25.2249H67.8616L65.2158 28.4544L62.5699 25.2249H60.7283L60.0868 32H62.2504L62.4574 27.6047L65.2158 30.6011L67.9741 27.6047L68.1815 32H70.3448ZM61.2523 0.414H56.9222L56.528 21.3662H61.7596L61.2523 0.414ZM74.6692 16.8089L69.8914 16.972L69.7329 4.64978L74.7301 4.80978L74.6692 16.8089ZM78.8565 0.423333H65.3567L64.8311 21.3662H79.8152L78.8565 0.423333ZM95 4.99933L94.5178 0.414H81.2168L81.3293 4.49844L85.5834 4.65444L86.0196 21.3664H91.2617L89.6936 4.80489L95 4.99933ZM43.5781 4.70022L47.7507 4.55244L48.2262 8.72689L43.4102 11.1351L43.5781 4.70022ZM48.4529 21.3662H54.1352L50.4319 11.9627L53.3873 10.2533L51.3681 0.414H36.8624L36.3851 4.95467L39.6299 4.84L38.0652 21.3662H43.1436L43.2809 16.0982L46.9401 13.982L48.4529 21.3662ZM51.2166 28.9464L51.6566 26.7298L53.7691 26.6287L54.2106 28.8531L51.2166 28.9464ZM54.8355 32H57.0261L55.2929 25.2244H50.1528L48.4197 32H50.6104L50.9496 30.2907L54.5057 30.3393L54.8355 32Z" fill="#D22A36"/>
</svg>
