<svg width="44" height="37" viewBox="0 0 44 37" fill="none" xmlns="http://www.w3.org/2000/svg">
<path d="M0.996094 1.00152e-05C0.731563 0.00106968 0.478227 0.106891 0.29154 0.29431C0.104853 0.481728 2.43282e-05 0.735477 0 1.00001V19C0.000351999 19.2317 0.0811222 19.456 0.228516 19.6348L14.2285 36.6348C14.3222 36.7488 14.44 36.8407 14.5733 36.9038C14.7067 36.967 14.8524 36.9998 15 37H29C29.1884 37.0001 29.3731 36.9469 29.5326 36.8467C29.6921 36.7464 29.8201 36.6031 29.9018 36.4333C29.9834 36.2634 30.0154 36.074 29.9941 35.8868C29.9728 35.6995 29.899 35.5221 29.7812 35.375L1.78125 0.37501C1.68708 0.257398 1.56755 0.162583 1.43159 0.0976477C1.29563 0.0327126 1.14676 -0.00066422 0.996094 1.00152e-05V1.00152e-05ZM42.9707 1.00001C42.8276 1.00439 42.6871 1.03944 42.5588 1.10278C42.4304 1.16613 42.3171 1.2563 42.2266 1.3672L24.2266 23.3672C24.1069 23.5137 24.0312 23.6911 24.0083 23.8789C23.9854 24.0667 24.0163 24.2571 24.0972 24.428C24.1782 24.599 24.306 24.7435 24.4658 24.8447C24.6256 24.946 24.8108 24.9998 25 25H39C39.15 25.0001 39.2981 24.9664 39.4333 24.9015C39.5686 24.8366 39.6875 24.7421 39.7812 24.625L43.7812 19.625C43.923 19.4476 44.0002 19.2271 44 19V2.00001C44 1.86619 43.9732 1.73372 43.9212 1.61045C43.8691 1.48718 43.7928 1.37562 43.6968 1.28237C43.6008 1.18912 43.4871 1.11608 43.3624 1.06758C43.2377 1.01908 43.1045 0.996103 42.9707 1.00001ZM2 3.85157L26.918 35H15.4727L2 18.6426V3.85157ZM42 4.80079V18.6484L38.5195 23H27.1094L42 4.80079Z" fill="#FFFAFA"/>
</svg>
