<svg width="40" height="45" viewBox="0 0 456 408" fill="none" xmlns="http://www.w3.org/2000/svg">
<g clip-path="url(#clip0_3_37)">
<path d="M227.86 134.55C202.88 134.55 182.54 154.88 182.54 179.86C182.54 204.85 202.88 225.19 227.86 225.19C252.85 225.19 273.18 204.85 273.18 179.86C273.18 154.88 252.85 134.55 227.86 134.55ZM227.86 134.55C202.88 134.55 182.54 154.88 182.54 179.86C182.54 204.85 202.88 225.19 227.86 225.19C252.85 225.19 273.18 204.85 273.18 179.86C273.18 154.88 252.85 134.55 227.86 134.55ZM303.36 60.66H152.37C128.27 60.66 108.66 80.27 108.66 104.37V255.36C108.66 279.46 128.27 299.07 152.37 299.07H303.36C327.46 299.07 347.07 279.46 347.07 255.36V104.37C347.07 80.27 327.46 60.66 303.36 60.66ZM227.86 258.35C184.59 258.35 149.38 223.14 149.38 179.86C149.38 136.59 184.59 101.38 227.86 101.38C271.14 101.38 306.35 136.59 306.35 179.86C306.35 223.14 271.14 258.35 227.86 258.35ZM308.87 117.61C298.63 117.61 290.3 109.28 290.3 99.04C290.3 88.8 298.63 80.47 308.87 80.47C319.11 80.47 327.44 88.8 327.44 99.04C327.44 109.28 319.11 117.61 308.87 117.61ZM227.86 134.55C202.88 134.55 182.54 154.88 182.54 179.86C182.54 204.85 202.88 225.19 227.86 225.19C252.85 225.19 273.18 204.85 273.18 179.86C273.18 154.88 252.85 134.55 227.86 134.55ZM303.36 60.66H152.37C128.27 60.66 108.66 80.27 108.66 104.37V255.36C108.66 279.46 128.27 299.07 152.37 299.07H303.36C327.46 299.07 347.07 279.46 347.07 255.36V104.37C347.07 80.27 327.46 60.66 303.36 60.66ZM227.86 258.35C184.59 258.35 149.38 223.14 149.38 179.86C149.38 136.59 184.59 101.38 227.86 101.38C271.14 101.38 306.35 136.59 306.35 179.86C306.35 223.14 271.14 258.35 227.86 258.35ZM308.87 117.61C298.63 117.61 290.3 109.28 290.3 99.04C290.3 88.8 298.63 80.47 308.87 80.47C319.11 80.47 327.44 88.8 327.44 99.04C327.44 109.28 319.11 117.61 308.87 117.61ZM227.86 134.55C202.88 134.55 182.54 154.88 182.54 179.86C182.54 204.85 202.88 225.19 227.86 225.19C252.85 225.19 273.18 204.85 273.18 179.86C273.18 154.88 252.85 134.55 227.86 134.55ZM0 -48V407.73H455.73V-48H0ZM380.23 255.36C380.23 297.75 345.75 332.23 303.36 332.23H152.37C109.98 332.23 75.5 297.75 75.5 255.36V104.37C75.5 61.98 109.98 27.5 152.37 27.5H303.36C345.75 27.5 380.23 61.98 380.23 104.37V255.36ZM303.36 60.66H152.37C128.27 60.66 108.66 80.27 108.66 104.37V255.36C108.66 279.46 128.27 299.07 152.37 299.07H303.36C327.46 299.07 347.07 279.46 347.07 255.36V104.37C347.07 80.27 327.46 60.66 303.36 60.66ZM227.86 258.35C184.59 258.35 149.38 223.14 149.38 179.86C149.38 136.59 184.59 101.38 227.86 101.38C271.14 101.38 306.35 136.59 306.35 179.86C306.35 223.14 271.14 258.35 227.86 258.35ZM308.87 117.61C298.63 117.61 290.3 109.28 290.3 99.04C290.3 88.8 298.63 80.47 308.87 80.47C319.11 80.47 327.44 88.8 327.44 99.04C327.44 109.28 319.11 117.61 308.87 117.61ZM227.86 134.55C202.88 134.55 182.54 154.88 182.54 179.86C182.54 204.85 202.88 225.19 227.86 225.19C252.85 225.19 273.18 204.85 273.18 179.86C273.18 154.88 252.85 134.55 227.86 134.55ZM227.86 134.55C202.88 134.55 182.54 154.88 182.54 179.86C182.54 204.85 202.88 225.19 227.86 225.19C252.85 225.19 273.18 204.85 273.18 179.86C273.18 154.88 252.85 134.55 227.86 134.55ZM227.86 134.55C202.88 134.55 182.54 154.88 182.54 179.86C182.54 204.85 202.88 225.19 227.86 225.19C252.85 225.19 273.18 204.85 273.18 179.86C273.18 154.88 252.85 134.55 227.86 134.55ZM303.36 60.66H152.37C128.27 60.66 108.66 80.27 108.66 104.37V255.36C108.66 279.46 128.27 299.07 152.37 299.07H303.36C327.46 299.07 347.07 279.46 347.07 255.36V104.37C347.07 80.27 327.46 60.66 303.36 60.66ZM227.86 258.35C184.59 258.35 149.38 223.14 149.38 179.86C149.38 136.59 184.59 101.38 227.86 101.38C271.14 101.38 306.35 136.59 306.35 179.86C306.35 223.14 271.14 258.35 227.86 258.35ZM308.87 117.61C298.63 117.61 290.3 109.28 290.3 99.04C290.3 88.8 298.63 80.47 308.87 80.47C319.11 80.47 327.44 88.8 327.44 99.04C327.44 109.28 319.11 117.61 308.87 117.61ZM227.86 134.55C202.88 134.55 182.54 154.88 182.54 179.86C182.54 204.85 202.88 225.19 227.86 225.19C252.85 225.19 273.18 204.85 273.18 179.86C273.18 154.88 252.85 134.55 227.86 134.55ZM227.86 134.55C202.88 134.55 182.54 154.88 182.54 179.86C182.54 204.85 202.88 225.19 227.86 225.19C252.85 225.19 273.18 204.85 273.18 179.86C273.18 154.88 252.85 134.55 227.86 134.55ZM227.86 134.55C202.88 134.55 182.54 154.88 182.54 179.86C182.54 204.85 202.88 225.19 227.86 225.19C252.85 225.19 273.18 204.85 273.18 179.86C273.18 154.88 252.85 134.55 227.86 134.55ZM303.36 60.66H152.37C128.27 60.66 108.66 80.27 108.66 104.37V255.36C108.66 279.46 128.27 299.07 152.37 299.07H303.36C327.46 299.07 347.07 279.46 347.07 255.36V104.37C347.07 80.27 327.46 60.66 303.36 60.66ZM227.86 258.35C184.59 258.35 149.38 223.14 149.38 179.86C149.38 136.59 184.59 101.38 227.86 101.38C271.14 101.38 306.35 136.59 306.35 179.86C306.35 223.14 271.14 258.35 227.86 258.35ZM308.87 117.61C298.63 117.61 290.3 109.28 290.3 99.04C290.3 88.8 298.63 80.47 308.87 80.47C319.11 80.47 327.44 88.8 327.44 99.04C327.44 109.28 319.11 117.61 308.87 117.61ZM227.86 134.55C202.88 134.55 182.54 154.88 182.54 179.86C182.54 204.85 202.88 225.19 227.86 225.19C252.85 225.19 273.18 204.85 273.18 179.86C273.18 154.88 252.85 134.55 227.86 134.55Z" fill="#474545"/>
</g>
<defs>
<clipPath id="clip0_3_37">
<rect width="455.73" height="455.73" fill="white" transform="translate(0 -48)"/>
</clipPath>
</defs>
</svg>
