<svg width="40" height="40" viewBox="0 0 455 429" fill="none" xmlns="http://www.w3.org/2000/svg">
<path fill-rule="evenodd" clip-rule="evenodd" d="M0 0V455H455V0H0ZM352.751 163.259C352.874 166.032 352.937 168.82 352.937 171.619C352.937 257.022 287.935 355.495 169.064 355.495C132.568 355.495 98.598 344.798 69.999 326.458C75.055 327.059 80.198 327.365 85.416 327.365C115.694 327.365 143.559 317.034 165.678 299.697C137.398 299.178 113.53 280.493 105.305 254.817C109.253 255.574 113.302 255.98 117.466 255.98C123.36 255.98 129.07 255.186 134.493 253.712C104.93 247.773 82.652 221.655 82.652 190.344C82.652 190.071 82.652 189.8 82.658 189.53C91.37 194.37 101.334 197.278 111.929 197.614C94.587 186.025 83.181 166.243 83.181 143.824C83.181 131.979 86.368 120.879 91.932 111.332C123.805 150.433 171.425 176.16 225.135 178.858C224.032 174.126 223.458 169.193 223.458 164.129C223.458 128.441 252.396 99.506 288.084 99.506C306.673 99.506 323.469 107.353 335.257 119.912C349.976 117.017 363.808 111.636 376.295 104.231C371.471 119.323 361.224 131.985 347.88 139.985C360.954 138.422 373.408 134.947 384.998 129.807C376.336 142.766 365.38 154.149 352.751 163.259Z" fill="#474545"/>
</svg>
